<svg width="160" height="200" viewBox="0 0 160 200" fill="none" xmlns="http://www.w3.org/2000/svg">
<path fill-rule="evenodd" clip-rule="evenodd" d="M160 60L100 0H19C5 0 0.5 12.6667 0 19V181C0 195.8 13.3333 199.833 20 200H140C156 200 160 186.667 160 180V60ZM90 20L140 70H90V20ZM95.7385 169.504C99.3865 171.168 103.674 172 108.603 172C113.531 172 117.786 171.136 121.37 169.408C125.018 167.68 127.835 165.248 129.819 162.112C131.867 158.976 132.891 155.36 132.891 151.264C132.891 145.568 131.29 140.896 128.09 137.248C124.891 133.536 120.187 130.976 113.979 129.568L106.491 127.84C104.314 127.328 102.619 126.368 101.403 124.96C100.251 123.488 99.6745 121.728 99.6745 119.68C99.6745 117.376 100.41 115.616 101.882 114.4C103.354 113.12 105.466 112.48 108.218 112.48C111.162 112.48 113.402 113.12 114.938 114.4C116.538 115.68 117.339 117.44 117.339 119.68H131.738C131.738 113.664 129.626 108.896 125.403 105.376C121.243 101.792 115.578 100 108.41 100C103.674 100 99.5785 100.832 96.1225 102.496C92.6665 104.16 89.9785 106.528 88.0585 109.6C86.2025 112.608 85.2745 116.16 85.2745 120.256C85.2745 125.76 86.9065 130.432 90.1705 134.272C93.4985 138.048 98.1385 140.64 104.09 142.048L111.195 143.68C113.499 144.192 115.291 145.184 116.571 146.656C117.851 148.128 118.491 149.888 118.491 151.936C118.491 154.304 117.626 156.16 115.898 157.504C114.234 158.848 111.899 159.52 108.891 159.52C105.755 159.52 103.259 158.848 101.403 157.504C99.6105 156.096 98.7145 154.208 98.7145 151.84H84.3145C84.3145 155.936 85.3065 159.488 87.2905 162.496C89.2745 165.504 92.0905 167.84 95.7385 169.504ZM34.144 166.24C38.304 170.08 43.936 172 51.04 172C58.144 172 63.744 170.08 67.84 166.24C72 162.336 74.08 157.088 74.08 150.496V100.96H59.68V150.4C59.68 153.344 58.912 155.616 57.376 157.216C55.84 158.752 53.728 159.52 51.04 159.52C48.288 159.52 46.144 158.752 44.608 157.216C43.136 155.616 42.4 153.344 42.4 150.4V100.96H28V150.496C28 157.152 30.048 162.4 34.144 166.24Z" fill="#CCCCCC"/>
</svg>
