<svg width="468" height="520" viewBox="0 0 468 520" fill="none" xmlns="http://www.w3.org/2000/svg">
<path d="M52 468C52 481.791 57.4786 495.018 67.2304 504.77C76.9823 514.521 90.2087 520 104 520H364C377.791 520 391.018 514.521 400.77 504.77C410.521 495.018 416 481.791 416 468V156H468V104H364V52C364 38.2087 358.521 24.9823 348.77 15.2304C339.018 5.47855 325.791 0 312 0H156C142.209 0 128.982 5.47855 119.23 15.2304C109.479 24.9823 104 38.2087 104 52V104H0V156H52V468ZM156 52H312V104H156V52ZM130 156H364V468H104V156H130Z" fill="white"/>
<path d="M156 208H208V416H156V208ZM260 208H312V416H260V208Z" fill="white"/>
</svg>
